# xmcd
#
# Track frame offsets:
#	150
#	12934
#	25291
#	36943
#	49148
#	63028
#	75790
#	91648
#	101169
#	114265
#	127058
#	139207
#	152677
#	164040
#	177053
#	190555
#
# Disc length: 2715
#
# Revision: 2
# Processed by: cddbd v1.5.1PL0 Copyright (c) Steve Scherf et al.
# Submitted via: ExactAudioCopy v0.95a5
# Normalized: r1:DSETVAR1
#
DISCID=c10a9910
DTITLE=Various Artist - Dirty Blues [CD2]
DYEAR=2000
DGENRE=Blues
TTITLE0=Kansas Joe and Memphis Minnie - What's The Matter With The Mill?
TTITLE1=Blind Boy Fuller - What's That Smells Like Fish?
TTITLE2=Lil Johnson - You Stole My Cherry
TTITLE3=Bumble Bee Slim - No More Biscuits Rolling Here
TTITLE4=Sonny Boy Williamson - Coal And Iceman Blues
TTITLE5=Georgia White - Get 'Em From The Peanut Man (Not Nuts)
TTITLE6=Lonnie Johnson - I Got The Best Jelly Rollin In Town
TTITLE7=Monette Moore - Two Old Maids In A Folding Bed
TTITLE8=Ethel Waters - My Handy Man
TTITLE9=Jesse James - Sweet Patootie
TTITLE10=Jazz Gillum - Savin' Chain
TTITLE11=Coot Grant - Take Your Hands Off My Mojo
TTITLE12=Walter Roland - Big Mama
TTITLE13=Rosetta Howard - The Candy Man
TTITLE14=Bo Carter - All Around Man
TTITLE15=Bessie Smith - Kitchen Man
EXTD=william hale
EXTT0=
EXTT1=
EXTT2=
EXTT3=
EXTT4=
EXTT5=
EXTT6=
EXTT7=
EXTT8=
EXTT9=
EXTT10=
EXTT11=
EXTT12=
EXTT13=
EXTT14=
EXTT15=
PLAYORDER=
